<?xml version="1.0" encoding="UTF-8" standalone="no"?>
<!DOCTYPE svg PUBLIC "-//W3C//DTD SVG 1.1//EN" "http://www.w3.org/Graphics/SVG/1.1/DTD/svg11.dtd">
<svg width="100%" height="100%" viewBox="0 0 40 40" version="1.1" xmlns="http://www.w3.org/2000/svg" xmlns:xlink="http://www.w3.org/1999/xlink" xml:space="preserve" xmlns:serif="http://www.serif.com/" style="fill-rule:evenodd;clip-rule:evenodd;stroke-linejoin:round;stroke-miterlimit:2;">
    <g transform="matrix(1,0,0,1,-1366.455829,-294.586956)">
        <g transform="matrix(0.112884,-0.112884,0.014876,0.014876,1271.9991,400.600593)">
            <path d="M1044.547,1081.312L731.347,1081.312L731.347,816.125C773.29,774.476 832.039,748.571 897.031,748.571C953.114,748.571 1004.548,767.86 1044.547,799.911L1044.547,1081.312Z" style="fill:rgb(34,34,34);"/>
        </g>
        <g transform="matrix(0.112884,0.112884,-0.014876,0.014876,1299.983558,200.130228)">
            <path d="M1044.547,1081.312L731.347,1081.312L731.347,816.125C773.29,774.476 832.039,748.571 897.031,748.571C953.114,748.571 1004.548,767.86 1044.547,799.911L1044.547,1081.312Z" style="fill:rgb(34,34,34);"/>
        </g>
    </g>
</svg>
